<svg id="Layer_1" data-name="Layer 1" xmlns="http://www.w3.org/2000/svg" viewBox="0 0 1080 200">
    <defs>
        <style>
            .cls-1{
                font-size:121.2px;
                letter-spacing:-0.08em;
            }
            .cls-1,.cls-3{
                font-family:ADAM.CGPRO, "ADAM.CG PRO";
            }
            .cls-2{
                letter-spacing:-0.06em;
            }
            .cls-3{
                font-size:25.97px;
            }
            .cls-4{
                letter-spacing:-0.14em;
            }
            .cls-5{
                letter-spacing:-0.06em;
            }
            .cls-6{
                letter-spacing:-0.03em;
            }
            .cls-7{
                letter-spacing:-0.02em;
            }
            .cls-8{
                letter-spacing:-0.03em;
            }
        </style>
    </defs>
    <title>
        Mindspark&amp;apos;20
    </title>
    <polygon points="201 58.28 201 149.96 215.08 149.96 215.08 102.97 249.48 152.01 283.89 102.97 283.89 149.96 297.97 149.96 297.97 58.28 249.48 127.49 201 58.28"/>
    <rect x="307.35" y="80.1" width="11.47" height="69.86"/>
    <polygon points="377.21 125.72 328.2 79.09 328.2 149.96 339.15 149.96 339.15 104.8 388.15 151.43 388.15 80.1 377.21 80.1 377.21 125.72"/>
    <path d="M412.92,80.1h-19V150h19A35.15,35.15,0,0,0,448,114.89,34.88,34.88,0,0,0,412.92,80.1Zm16.95,51.8A23.17,23.17,0,0,1,412.92,139h-7.56v-48h7.56a24,24,0,0,1,24,23.9A23.11,23.11,0,0,1,429.87,131.9Z"/>
    <path d="M499.48,105q-4.71-3.7-17.35-6.7-7.23-1.71-9.93-3.59-4.53-3.06-4.53-9.41a12.85,12.85,0,0,1,12.82-12.82,12.75,12.75,0,0,1,11.4,7l12.59-6.35a26.9,26.9,0,0,0-9.94-10.76,26.28,26.28,0,0,0-14.05-4,26.9,26.9,0,0,0-26.93,26.93q0,13.83,7.93,20,4.71,3.7,17.35,6.7,7.23,1.71,9.94,3.59,4.47,3.06,4.47,9.4a11.65,11.65,0,0,1-4.06,8.65A14.68,14.68,0,0,1,479,137.78a15.28,15.28,0,0,1-9.29-3.17,11.53,11.53,0,0,1-4.77-6.88l-13.81,2.94a25.13,25.13,0,0,0,10.17,15.23,28.8,28.8,0,0,0,17.7,6A28.3,28.3,0,0,0,498.77,144q8.66-8,8.65-19Q507.42,111.21,499.48,105Z"/>
    <path d="M555.92,103.65A23.64,23.64,0,0,0,532.15,80.1H510.67V150h11.46V127.54h10a24,24,0,0,0,23.77-23.89Zm-14.79,8.81a12.12,12.12,0,0,1-9,3.61h-10v-25h10a12.22,12.22,0,0,1,9,3.67,12.41,12.41,0,0,1,0,17.74Z"/>
    <path d="M547.37,150h12l5.52-13h25.9l5.53,13h12L577.82,78.4Zm21.88-23.46,8.57-20.09,8.57,20.09Z"/>
    <path d="M648.88,120.47A23.61,23.61,0,0,0,632.06,80.1H609.72V150h10.94V127.54h8.55L643.91,150h13.17l-15.89-24.33A23.66,23.66,0,0,0,648.88,120.47Zm-16.82-3.88h-11.4V91.05h11.4a12.66,12.66,0,0,1,9,21.69A12.24,12.24,0,0,1,632.06,116.59Z"/>
    <polygon points="710.12 86.66 713.95 108.73 763.01 43.4 720.77 87.53 716.12 65.19 701.27 80.1 701.24 80.1 690.04 91.08 688.28 92.61 688.29 92.61 670.19 110.75 670.19 80.1 659.24 80.1 659.24 149.96 670.19 149.96 670.19 126.41 676.73 119.96 700.77 149.96 714.92 149.96 684.7 112.08 710.12 86.66"/>
    <text class="cls-1" transform="translate(744.58 150.39)">
        2
        <tspan class="cls-2" x="64.12" y="0">
            0
        </tspan>
    </text>
</svg>